<?xml version="1.0" standalone="no"?>
<!DOCTYPE svg PUBLIC "-//W3C//DTD SVG 20010904//EN"
 "http://www.w3.org/TR/2001/REC-SVG-20010904/DTD/svg10.dtd">
<svg version="1.0" xmlns="http://www.w3.org/2000/svg"
 width="1586.000000pt" height="1586.000000pt" viewBox="0 0 1586.000000 1586.000000"
 preserveAspectRatio="xMidYMid meet">
<metadata>
Created by potrace 1.11, written by Peter Selinger 2001-2013
</metadata>
<g transform="translate(0.000000,1586.000000) scale(0.100000,-0.100000)"
fill="#000000" stroke="none">
<path d="M3717 14644 c-1 -1 -45 -5 -97 -8 -53 -4 -105 -8 -115 -10 -11 -2
-42 -7 -70 -10 -27 -4 -84 -13 -125 -21 -41 -9 -84 -17 -95 -19 -58 -11 -201
-51 -280 -78 -387 -129 -710 -332 -976 -613 -255 -268 -464 -661 -555 -1040
-16 -68 -44 -199 -49 -230 -21 -137 -33 -245 -40 -365 -2 -25 -4 -214 -4 -421
l-1 -375 -647 0 -648 0 -3 -539 c-1 -317 2 -541 7 -544 5 -3 298 -6 650 -5
l641 0 0 -2806 0 -2807 685 0 685 0 0 66 c1 36 1 1309 1 2828 l0 2762 55 -30
c30 -16 80 -43 112 -60 31 -17 89 -51 128 -75 39 -24 74 -44 79 -44 5 0 16 -6
24 -14 9 -8 37 -26 64 -40 26 -14 68 -38 95 -52 471 -263 837 -442 1430 -700
56 -24 106 -46 127 -54 11 -4 48 -20 81 -34 34 -14 64 -26 68 -26 21 0 105
-46 108 -59 2 -9 3 -1018 3 -2242 l-1 -2226 925 1 926 1 1 1930 c1 1062 2
1931 3 1932 0 0 58 -14 129 -33 221 -60 667 -168 812 -198 14 -3 34 -7 45 -10
61 -14 113 -25 135 -29 14 -3 115 -23 225 -45 110 -23 241 -48 290 -57 50 -9
110 -20 135 -25 25 -5 61 -12 80 -14 19 -3 45 -8 56 -10 23 -5 71 -13 132 -22
20 -3 44 -7 52 -9 8 -2 38 -7 65 -11 28 -3 59 -8 70 -10 10 -2 37 -6 60 -9 22
-3 48 -8 58 -11 16 -5 17 -94 17 -1688 l0 -1683 1065 0 1065 0 1 56 c0 31 0
741 0 1579 l0 1523 172 -7 c278 -11 563 -7 807 12 93 7 322 32 370 40 14 2 50
7 80 10 30 3 58 8 61 9 3 2 28 7 55 10 91 12 438 84 622 130 101 25 186 45
191 45 4 0 7 -757 7 -1682 -1 -926 0 -1692 2 -1704 l4 -21 989 0 990 0 -4
2051 c-2 1128 -6 2067 -9 2086 -4 19 -9 69 -12 111 -4 42 -8 86 -11 97 -2 12
-6 47 -10 79 -3 32 -8 65 -10 73 -2 8 -6 37 -10 65 -5 43 -20 121 -55 290 -22
106 -105 367 -158 500 -32 80 -107 235 -147 305 -21 36 -46 81 -57 100 -115
201 -355 465 -569 625 -144 107 -375 238 -504 286 -11 4 -36 14 -56 23 -190
83 -559 165 -875 193 -112 10 -593 10 -699 1 -72 -7 -231 -31 -295 -44 -14 -3
-38 -7 -55 -10 -134 -22 -400 -117 -562 -200 -403 -206 -712 -508 -1017 -994
-44 -69 -80 -127 -82 -129 -2 -2 -6 5 -10 15 -3 10 -12 33 -19 49 -7 17 -28
66 -46 110 -135 329 -345 616 -595 811 -237 186 -574 335 -882 389 -189 33
-315 42 -522 39 -204 -3 -234 -5 -320 -19 -25 -4 -54 -9 -65 -10 -189 -25
-461 -112 -646 -206 -204 -104 -355 -223 -517 -408 -48 -54 -135 -195 -204
-328 -81 -157 -108 -202 -109 -188 0 6 -2 21 -5 35 -2 14 -15 90 -29 170 -14
80 -41 237 -61 350 -19 113 -37 219 -40 235 -2 17 -10 57 -17 90 l-12 59
-1810 0 c-1059 0 -1813 3 -1816 8 -7 11 -3 752 4 783 2 11 8 47 12 80 25 213
122 475 231 621 59 80 156 176 231 230 117 83 309 160 455 181 69 9 358 10
425 1 240 -35 503 -132 755 -279 l47 -28 20 35 c12 19 21 37 21 39 0 2 113
231 250 509 138 278 250 511 250 516 0 6 -4 10 -9 10 -5 0 -42 19 -83 43 -323
189 -751 345 -1103 401 -16 3 -43 7 -60 10 -33 6 -78 11 -175 22 -58 6 -377
13 -383 8z"/>
<path d="M3100 9678 c-1 -15 -1 -4849 0 -4894 l0 -31 768 1 767 1 1 2090 c0
1170 -3 2098 -8 2108 -5 9 -15 17 -22 17 -7 0 -26 6 -42 14 -16 8 -78 35 -139
61 -60 25 -128 55 -150 65 -22 10 -94 43 -160 73 -66 30 -156 72 -200 92 -101
47 -577 285 -590 295 -5 4 -58 33 -117 64 -68 36 -108 52 -108 44z"/>
<path d="M7323 6418 l2 -1663 763 -1 762 -1 1 66 c2 334 0 2943 -3 2946 -2 2
-71 15 -153 29 -83 14 -161 28 -175 31 -14 3 -50 9 -80 15 -30 6 -68 13 -85
16 -24 4 -381 76 -448 89 -10 2 -26 6 -35 9 -9 3 -31 8 -49 11 -17 3 -71 14
-120 26 -48 12 -95 22 -103 24 -8 2 -46 11 -85 20 -38 9 -77 18 -85 20 -37 8
-76 17 -92 21 -15 5 -16 -110 -15 -1658z"/>
<path d="M13240 7614 c-82 -16 -100 -20 -180 -33 -36 -6 -74 -13 -85 -15 -11
-2 -42 -7 -70 -10 -27 -4 -61 -9 -75 -11 -60 -9 -275 -33 -355 -40 -38 -4 -90
-8 -115 -10 -25 -2 -155 -7 -290 -11 -135 -3 -246 -8 -248 -9 -2 -2 -4 -2092
-2 -2611 l0 -111 765 0 765 0 0 1439 0 1438 -22 -1 c-13 -1 -52 -7 -88 -15z"/>
<path d="M6280 3668 c-286 -30 -538 -146 -725 -333 -236 -235 -359 -565 -349
-933 15 -594 357 -1030 899 -1149 72 -15 79 -16 181 -27 80 -9 258 -10 312 -2
23 3 61 8 85 11 209 27 455 143 630 297 l38 33 -150 153 c-82 83 -152 152
-155 152 -2 0 -11 -6 -18 -13 -68 -65 -191 -136 -300 -173 -140 -47 -246 -58
-406 -40 -85 9 -238 51 -248 67 -3 5 -12 9 -20 9 -9 0 -40 16 -70 36 -214 142
-332 369 -339 654 -11 403 199 708 558 811 92 26 295 36 393 20 135 -23 276
-86 374 -166 l54 -44 86 83 c47 46 113 110 148 143 l63 60 -38 34 c-177 159
-381 262 -607 306 -92 17 -284 23 -396 11z"/>
<path d="M1188 3623 c-2 -5 -3 -534 -3 -1178 l1 -1170 882 -3 882 -2 0 220 0
220 -660 0 -660 0 0 265 0 265 638 0 637 0 -1 203 c-1 111 -2 205 -3 208 0 3
-287 5 -636 5 l-635 -1 0 272 0 272 623 0 c342 0 639 0 660 1 l37 0 0 215 0
215 -879 0 c-484 0 -881 -3 -883 -7z"/>
<path d="M3190 3420 l0 -210 579 -2 579 -3 -63 -90 c-35 -49 -68 -94 -72 -100
-5 -5 -40 -55 -78 -110 -38 -55 -73 -104 -78 -110 -10 -12 -99 -137 -131 -185
-13 -19 -107 -152 -209 -295 -102 -143 -200 -281 -219 -307 -18 -26 -102 -144
-187 -262 l-153 -216 0 -103 c0 -56 0 -114 1 -129 l1 -28 920 0 920 0 0 210
c0 193 -1 210 -17 211 -10 0 -284 1 -610 1 -427 1 -590 4 -586 12 6 9 394 559
505 716 166 233 397 559 443 625 98 142 190 271 194 275 3 3 21 26 39 52 31
45 32 49 32 152 l0 106 -905 0 -905 0 0 -210z"/>
<path d="M7536 2458 c1 -645 2 -1176 3 -1180 0 -5 92 -8 204 -8 l203 0 -1 436
c0 286 4 461 12 505 41 244 242 395 475 358 139 -22 241 -114 278 -249 22 -81
23 -100 23 -578 l1 -472 205 2 206 3 0 475 c1 484 -5 596 -40 729 -80 311
-318 484 -655 475 -185 -5 -321 -59 -440 -176 -32 -32 -60 -58 -62 -58 -1 0
-3 205 -2 455 l1 455 -206 0 -206 0 1 -1172z"/>
<path d="M13628 3394 c-2 -1 -30 -4 -63 -8 -33 -3 -80 -8 -105 -11 -25 -2 -72
-7 -105 -11 -33 -3 -62 -7 -64 -10 -2 -2 -4 -99 -4 -214 l0 -210 -156 0 -156
0 1 -168 c1 -92 2 -172 3 -177 1 -6 54 -10 144 -9 78 0 147 -1 153 -3 7 -3 10
-121 10 -385 -1 -243 3 -410 11 -462 36 -250 174 -408 403 -461 63 -14 272
-15 328 -2 145 36 192 52 192 65 0 12 -106 332 -112 337 -2 3 -29 -5 -59 -17
-75 -29 -188 -29 -245 0 -52 27 -89 76 -100 132 -8 44 -15 750 -8 780 3 13 37
15 232 15 l229 0 -1 177 0 178 -228 0 -228 0 -1 118 c0 64 0 170 1 234 l1 117
-35 -1 c-20 -1 -37 -2 -38 -4z"/>
<path d="M10170 2969 c-116 -10 -239 -43 -333 -90 -77 -38 -183 -115 -221
-160 -150 -179 -208 -344 -210 -594 -1 -157 4 -207 32 -315 77 -292 272 -485
568 -561 117 -30 317 -33 414 -6 76 21 158 57 215 94 50 34 145 131 145 149 0
30 20 12 21 -18 0 -18 3 -53 5 -78 3 -25 6 -61 7 -80 l2 -35 195 0 195 0 0
823 c0 463 -4 826 -9 829 -9 6 -376 6 -382 0 -5 -4 -12 -95 -13 -161 l-1 -59
-30 39 c-129 165 -341 243 -600 223z m240 -373 c78 -13 184 -72 243 -136 255
-275 134 -755 -212 -843 -75 -19 -209 -19 -275 0 -182 51 -310 192 -342 377
-66 386 204 664 586 602z"/>
<path d="M12290 2965 c-118 -19 -214 -77 -297 -180 -18 -22 -34 -34 -34 -27
-1 6 -2 15 -3 20 -1 4 -6 34 -10 68 -4 33 -11 66 -15 73 -7 11 -189 17 -358
12 l-23 -1 0 -830 0 -830 205 0 c188 0 205 1 206 18 0 9 2 231 3 492 3 526 4
531 69 627 72 103 182 155 337 159 102 2 178 -18 254 -69 l52 -34 91 177 92
178 -22 20 c-60 55 -188 112 -287 128 -71 11 -189 11 -260 -1z"/>
<path d="M15005 2973 c-316 -42 -524 -196 -566 -421 -14 -76 -6 -194 18 -254
54 -139 176 -239 361 -296 114 -36 146 -42 297 -56 175 -17 247 -36 291 -77
66 -62 46 -178 -42 -238 -117 -80 -306 -76 -529 11 -91 36 -160 75 -222 125
-24 20 -45 34 -46 32 -18 -29 -113 -169 -149 -221 l-47 -66 52 -49 c106 -100
239 -173 382 -211 198 -52 468 -51 638 3 260 83 411 269 409 504 -1 206 -74
335 -242 429 -54 29 -166 66 -240 78 -14 2 -38 6 -55 9 -34 5 -103 13 -185 19
-123 10 -220 42 -261 85 -46 49 -44 134 5 186 44 47 117 67 251 70 163 3 285
-32 381 -110 l42 -35 101 120 c56 65 108 125 116 133 12 13 10 18 -13 38 -89
79 -238 151 -372 179 -55 12 -318 21 -375 13z"/>
</g>
</svg>
